# xmcd
#
# Track frame offsets:
# 150
# 13525
# 32824
# 43958
# 51294
# 66894
#
# Disc length: 1130 seconds
#
# Revision: 0
# Processed by: cddbd v1.4PL0 Copyright (c) Steve Scherf et al.
# Submitted via: Audion 3.0.2 (http://www.panic.com/audion/)
#
DISCID=4f046806
DTITLE=Bobby Birdman - Heart Caves
DYEAR=1900
DGENRE=
TTITLE0=A Feat So Bold
TTITLE1=And Then It Begins
TTITLE2=I Will Come Again
TTITLE3=Gone Beyond
TTITLE4=Let My Burden Be
TTITLE5=Ultra Shape
EXTD=
EXTT0=
EXTT1=
EXTT2=
EXTT3=
EXTT4=
EXTT5=
PLAYORDER=
